<svg width="22" height="27" viewBox="0 0 22 27" version="1.1" xmlns="http://www.w3.org/2000/svg" xmlns:xlink="http://www.w3.org/1999/xlink">
<title>desc</title>
<desc>Created using Figma</desc>
<g id="Canvas" transform="translate(-1795 -631)">
<g id="desc">
<g id="Group">
<g id="Vector">
<use xlink:href="#path0_fill" transform="translate(1803.53 631)" fill="#8FC54C"/>
</g>
<g id="Vector">
<use xlink:href="#path1_fill" transform="translate(1795 631.9)" fill="#8FC54C"/>
</g>
<g id="Vector">
<use xlink:href="#path2_fill" transform="translate(1796.35 633.25)" fill="#8FC54C"/>
</g>
</g>
</g>
</g>
<defs>
<path id="path0_fill" d="M 0.44898 3.15L 4.4898 3.15C 4.73808 3.15 4.93878 2.94885 4.93878 2.7L 4.93878 0.45C 4.93878 0.20115 4.73808 0 4.4898 0L 0.44898 0C 0.200694 0 0 0.20115 0 0.45L 0 2.7C 0 2.94885 0.200694 3.15 0.44898 3.15Z"/>
<path id="path1_fill" d="M 14.8163 0C 14.568 0 14.3673 0.20115 14.3673 0.45C 14.3673 0.69885 14.568 0.9 14.8163 0.9L 21.102 0.9L 21.102 25.2L 0.897959 25.2L 0.897959 0.9L 7.18367 0.9C 7.43196 0.9 7.63265 0.69885 7.63265 0.45C 7.63265 0.20115 7.43196 0 7.18367 0L 0 0L 0 26.1L 22 26.1L 22 0L 14.8163 0Z"/>
<path id="path2_fill" d="M 0 0L 0 23.4L 19.3061 23.4L 19.3061 0L 14.3673 0L 14.3673 1.35L 4.93878 1.35L 4.93878 0L 0 0ZM 8.97959 19.35L 3.14286 19.35C 2.89457 19.35 2.69388 19.1488 2.69388 18.9C 2.69388 18.6511 2.89457 18.45 3.14286 18.45L 8.97959 18.45C 9.22788 18.45 9.42857 18.6511 9.42857 18.9C 9.42857 19.1488 9.22788 19.35 8.97959 19.35ZM 16.1633 16.65L 3.14286 16.65C 2.89457 16.65 2.69388 16.4489 2.69388 16.2C 2.69388 15.9511 2.89457 15.75 3.14286 15.75L 16.1633 15.75C 16.4116 15.75 16.6122 15.9511 16.6122 16.2C 16.6122 16.4489 16.4116 16.65 16.1633 16.65ZM 16.1633 13.5L 3.14286 13.5C 2.89457 13.5 2.69388 13.2989 2.69388 13.05C 2.69388 12.8011 2.89457 12.6 3.14286 12.6L 16.1633 12.6C 16.4116 12.6 16.6122 12.8011 16.6122 13.05C 16.6122 13.2989 16.4116 13.5 16.1633 13.5ZM 2.69388 10.35C 2.69388 10.1011 2.89457 9.9 3.14286 9.9L 9.42857 9.9C 9.67686 9.9 9.87755 10.1011 9.87755 10.35C 9.87755 10.5989 9.67686 10.8 9.42857 10.8L 3.14286 10.8C 2.89457 10.8 2.69388 10.5989 2.69388 10.35ZM 10.7755 10.35C 10.7755 10.2281 10.8204 10.1156 10.9057 10.0305C 11.0763 9.8595 11.3727 9.864 11.5433 10.0305C 11.6281 10.1156 11.6735 10.2281 11.6735 10.35C 11.6735 10.4715 11.6241 10.584 11.5433 10.6695C 11.458 10.7505 11.3457 10.8 11.2245 10.8C 11.1028 10.8 10.9906 10.7545 10.9057 10.6695C 10.8244 10.584 10.7755 10.467 10.7755 10.35ZM 16.1633 10.8L 13.0204 10.8C 12.7721 10.8 12.5714 10.5989 12.5714 10.35C 12.5714 10.1011 12.7721 9.9 13.0204 9.9L 16.1633 9.9C 16.4116 9.9 16.6122 10.1011 16.6122 10.35C 16.6122 10.5989 16.4116 10.8 16.1633 10.8ZM 16.1633 7.2C 16.4116 7.2 16.6122 7.40115 16.6122 7.65C 16.6122 7.89885 16.4116 8.1 16.1633 8.1L 3.14286 8.1C 2.89457 8.1 2.69388 7.89885 2.69388 7.65C 2.69388 7.40115 2.89457 7.2 3.14286 7.2L 16.1633 7.2ZM 8.97959 4.5C 9.22788 4.5 9.42857 4.70115 9.42857 4.95C 9.42857 5.19885 9.22788 5.4 8.97959 5.4L 3.14286 5.4C 2.89457 5.4 2.69388 5.19885 2.69388 4.95C 2.69388 4.70115 2.89457 4.5 3.14286 4.5L 8.97959 4.5Z"/>
</defs>
</svg>
