<svg width="22" height="27" viewBox="0 0 22 27" version="1.1" xmlns="http://www.w3.org/2000/svg" xmlns:xlink="http://www.w3.org/1999/xlink">
<title>country</title>
<desc>Created using Figma</desc>
<g id="Canvas" transform="translate(-2226 -630)">
<g id="country">
<g id="Vector">
<use xlink:href="#path0_fill" transform="translate(2226 630)" fill="#8FC54C"/>
</g>
</g>
</g>
<defs>
<path id="path0_fill" d="M 21.6855 1.4157C 21.584 1.37925 19.1555 0.51705 16.278 0.51705C 14.561 0.51705 13.043 0.8262 11.766 1.43595C 10.6345 1.9764 9.0995 2.25 7.2035 2.25C 4.5495 2.25 1.9325 1.7046 1 1.48815L 1 0.45C 1 0.20115 0.7765 0 0.5 0C 0.2235 0 0 0.20115 0 0.45L 0 1.8C 0 1.8063 0.00350019 1.8117 0.00400019 1.818C 0.00400019 1.8234 0 1.8279 0 1.8333L 0 14.85L 0 15.3333L 0 26.55C 0 26.7988 0.2235 27 0.5 27C 0.7765 27 1 26.7988 1 26.55L 1 15.9179C 2.1365 16.1716 4.6215 16.65 7.2035 16.65C 9.2645 16.65 10.957 16.3404 12.2345 15.7311C 13.366 15.1906 14.726 14.9166 16.278 14.9166C 18.9565 14.9166 21.2915 15.7428 21.3145 15.7509C 21.469 15.8067 21.643 15.7896 21.7805 15.705C 21.9175 15.6222 22 15.4827 22 15.3333L 22 1.8333C 22 1.64925 21.8755 1.4841 21.6855 1.4157Z"/>
</defs>
</svg>
