<svg width="33" height="27" viewBox="0 0 33 27" version="1.1" xmlns="http://www.w3.org/2000/svg" xmlns:xlink="http://www.w3.org/1999/xlink">
<title>employee</title>
<desc>Created using Figma</desc>
<g id="Canvas" transform="translate(-2490 -754)">
<g id="employee">
<g id="Group">
<g id="Vector">
<use xlink:href="#path0_fill" transform="translate(2490 754)" fill="#8FC54C"/>
</g>
</g>
</g>
</g>
<defs>
<path id="path0_fill" d="M 29.2295 8.88686C 28.2206 8.88686 27.4014 9.71921 27.4014 10.7413C 27.4014 11.7641 28.2206 12.5953 29.2295 12.5953C 30.235 12.5953 31.0535 11.7637 31.0535 10.7413C 31.0535 9.71921 30.2346 8.88686 29.2295 8.88686ZM 3.00004 8.88686C 1.99116 8.88686 1.17191 9.71921 1.17191 10.7413C 1.17191 11.7641 1.99116 12.5953 3.00004 12.5953C 4.0063 12.5953 4.82518 11.7637 4.82518 10.7413C 4.82518 9.71921 4.0063 8.88686 3.00004 8.88686ZM 23.7995 5.51405C 22.3015 5.51405 21.0865 6.7521 21.0865 8.27584C 21.0865 9.79654 22.3015 11.0323 23.7995 11.0323C 25.2978 11.0323 26.5165 9.79654 26.5165 8.27584C 26.5165 6.75362 25.2978 5.51405 23.7995 5.51405ZM 32.2258 22.2973L 29.1324 22.2973L 29.1324 16.5102C 29.1324 15.5159 28.845 14.5929 28.3833 13.788C 28.6554 13.7072 28.9346 13.6497 29.2295 13.6497C 30.8789 13.6497 32.2258 15.0188 32.2258 16.6995L 32.2258 22.2973ZM 8.42598 5.51405C 6.92689 5.51405 5.70889 6.7521 5.70889 8.27584C 5.70889 9.79654 6.92689 11.0323 8.42598 11.0323C 9.92019 11.0323 11.1382 9.79654 11.1382 8.27584C 11.1382 6.75362 9.92056 5.51405 8.42598 5.51405ZM 3.00004 13.6497C 3.29499 13.6497 3.57044 13.7068 3.84328 13.788C 3.37669 14.5929 3.09411 15.5159 3.09411 16.5102L 3.09411 22.2973L 0 22.2973L 0 16.6995C 0 15.0184 1.34768 13.6497 3.00004 13.6497ZM 16.1099 -6.5392e-08C 13.8988 -6.5392e-08 12.0961 1.8304 12.0961 4.08021C 12.0961 6.32964 13.8969 8.16232 16.1099 8.16232C 18.3233 8.16232 20.1263 6.32964 20.1263 4.08021C 20.1282 1.83002 18.3233 -6.5392e-08 16.1099 -6.5392e-08ZM 28.1389 24.4512L 23.4 24.4512L 23.4 15.6458C 23.4 14.4348 23.0855 13.3084 22.5773 12.2985C 22.9652 12.182 23.373 12.0993 23.7998 12.0993C 26.1909 12.0993 28.1389 14.0756 28.1389 16.5102L 28.1389 24.4512ZM 8.82098 15.6458L 8.82098 24.4512L 4.088 24.4512L 4.088 16.5102C 4.088 14.0779 6.03344 12.0993 8.42822 12.0993C 8.85509 12.0993 9.25872 12.182 9.64586 12.2985C 9.13729 13.3084 8.82098 14.4348 8.82098 15.6458ZM 9.8145 27L 22.4061 27L 22.4061 15.6458C 22.4061 12.1168 19.5807 9.24685 16.1095 9.24685C 12.6358 9.24685 9.8145 12.1168 9.8145 15.6458L 9.8145 27Z"/>
</defs>
</svg>
