<svg width="22" height="27" viewBox="0 0 22 27" version="1.1" xmlns="http://www.w3.org/2000/svg" xmlns:xlink="http://www.w3.org/1999/xlink">
<title>industry</title>
<desc>Created using Figma</desc>
<g id="Canvas" transform="translate(-2489 -632)">
<g id="industry">
<g id="Group">
<g id="Group">
<g id="Vector">
<use xlink:href="#path0_fill" transform="translate(2492.74 634.907)" fill="#8FC54C"/>
</g>
<g id="Vector">
<use xlink:href="#path1_fill" transform="translate(2501.15 634.907)" fill="#8FC54C"/>
</g>
<g id="Vector">
<use xlink:href="#path2_fill" transform="translate(2489 650.929)" fill="#8FC54C"/>
</g>
<g id="Vector">
<use xlink:href="#path3_fill" transform="translate(2489 642.854)" fill="#8FC54C"/>
</g>
<g id="Vector">
<use xlink:href="#path4_fill" transform="translate(2489.53 632)" fill="#8FC54C"/>
</g>
<g id="Vector">
<use xlink:href="#path5_fill" transform="translate(2499.54 632.682)" fill="#8FC54C"/>
</g>
</g>
</g>
</g>
</g>
<defs>
<path id="path0_fill" d="M -8.47575e-08 8.66245L 3.06501 7.49468L 3.06501 8.4187e-08L -8.47575e-08 8.4187e-08L -8.47575e-08 8.66245Z"/>
<path id="path1_fill" d="M 4.90701e-07 8.66245L 3.06735 7.49468L 3.06735 8.4187e-08L 4.90701e-07 8.4187e-08L 4.90701e-07 8.66245Z"/>
<path id="path2_fill" d="M 2.8996e-08 8.07099L 22 8.07099L 22 2.88641e-07L 2.8996e-08 2.88641e-07L 2.8996e-08 8.07099ZM 10.5363 1.24344L 12.8962 1.24344L 12.8962 5.31551L 10.5363 5.31551L 10.5363 1.24344ZM 6.36507 1.24344L 8.72609 1.24344L 8.72609 5.31551L 6.36507 5.31551L 6.36507 1.24344ZM 2.03944 1.24344L 4.39813 1.24344L 4.39813 5.31551L 2.03944 5.31551L 2.03944 1.24344Z"/>
<path id="path3_fill" d="M 16.8055 3.2965L 16.2033 4.42583e-07L 8.55536 3.2965L 7.63972 4.42583e-07L 2.8996e-08 3.2965L 2.8996e-08 6.81116L 21.9988 6.81116L 21.9988 3.2965L 16.8055 3.2965Z"/>
<path id="path4_fill" d="M 1.82598 2.36959C 2.21071 2.29141 2.50774 2.0581 2.74279 1.80336C 2.9872 1.54484 3.1743 1.28631 3.45379 1.1312C 3.71807 0.971042 4.05486 0.925642 4.27237 0.972303C 4.48053 1.0114 4.61384 1.1085 4.7682 1.3645C 4.9132 1.60915 5.01845 1.92064 5.14709 2.24727L 5.20906 2.24727C 5.31899 1.89668 5.32367 1.5234 5.21257 1.14633C 5.1541 0.958431 5.05353 0.765483 4.88514 0.612891C 4.72025 0.456516 4.47585 0.382111 4.27354 0.407333C 3.85256 0.462821 3.60581 0.749089 3.34386 0.94582C 3.08543 1.14759 2.81763 1.36702 2.54633 1.49818C 2.26684 1.62807 1.98853 1.71761 1.74529 1.734C 1.49854 1.74031 1.30676 1.65455 1.11498 1.49692C 0.718552 1.17912 0.401644 0.592714 0.0683635 0L 0.00638512 0.0126109C -0.0357134 0.723867 0.123326 1.48305 0.693995 2.05936C 0.984007 2.33933 1.44475 2.4667 1.82598 2.36959Z"/>
<path id="path5_fill" d="M 1.31593 1.74535C 1.60594 1.68104 1.81175 1.49944 1.9743 1.29893C 2.13217 1.10724 2.26197 0.916815 2.45376 0.817188C 2.63852 0.709995 2.88527 0.717562 3.00572 0.764222C 3.11447 0.807099 3.16592 0.823494 3.28286 0.983652C 3.38811 1.13372 3.47932 1.34054 3.60445 1.56376L 3.6676 1.56376C 3.78103 1.31658 3.7974 1.04797 3.72724 0.765483C 3.68865 0.625502 3.61381 0.476693 3.48517 0.356889C 3.35888 0.232041 3.16358 0.176553 3.00805 0.199253C 2.68647 0.25348 2.52509 0.488043 2.345 0.631808C 2.16608 0.783139 1.9743 0.918076 1.77433 0.997524C 1.57787 1.0631 1.38375 1.1085 1.23875 1.10976C 1.08789 1.10093 0.99317 1.04671 0.87623 0.957169C 0.627147 0.774311 0.382741 0.394722 0.0927292 1.0824e-08L 0.0307514 0.013872C -0.0569539 0.525876 0.0307504 1.07823 0.452905 1.51962C 0.672753 1.73274 1.03059 1.82732 1.31593 1.74535Z"/>
</defs>
</svg>
