<svg width="22" height="27" viewBox="0 0 22 27" version="1.1" xmlns="http://www.w3.org/2000/svg" xmlns:xlink="http://www.w3.org/1999/xlink">
<title>revenue</title>
<desc>Created using Figma</desc>
<g id="Canvas" transform="translate(-2225 -755)">
<g id="revenue">
<g id="Group">
<g id="Group">
<g id="Group">
<g id="Vector">
<use xlink:href="#path0_fill" transform="translate(2236.55 772.351)" fill="#8FC54C"/>
</g>
</g>
<g id="Group">
<g id="Vector">
<use xlink:href="#path1_fill" transform="translate(2237.88 774.053)" fill="#8FC54C"/>
</g>
</g>
<g id="Group">
<g id="Vector">
<use xlink:href="#path2_fill" transform="translate(2234.06 768.476)" fill="#8FC54C"/>
</g>
</g>
<g id="Group">
<g id="Vector">
<use xlink:href="#path3_fill" transform="translate(2237.88 774.035)" fill="#8FC54C"/>
</g>
</g>
<g id="Group">
<g id="Vector">
<use xlink:href="#path4_fill" transform="translate(2237.9 774.012)" fill="#8FC54C"/>
</g>
</g>
<g id="Group">
<g id="Vector">
<use xlink:href="#path5_fill" transform="translate(2225 755)" fill="#8FC54C"/>
</g>
</g>
<g id="Group">
<g id="Vector">
<use xlink:href="#path6_fill" transform="translate(2237.86 774.07)" fill="#8FC54C"/>
</g>
</g>
</g>
</g>
</g>
</g>
<defs>
<path id="path0_fill" d="M 1.2504 0.584242C 1.15135 0.473823 1.02603 0.391233 0.896529 0.322427C 0.614558 0.172745 0.306187 0.0819568 3.80924e-08 1.08576e-07L 3.80924e-08 2.41524C 0.496976 2.35806 1.06753 2.17446 1.32847 1.70216C 1.45304 1.47655 1.47782 1.19936 1.42708 0.948219C 1.39956 0.812133 1.3427 0.687228 1.2504 0.584242Z"/>
<path id="path1_fill" d="M 2.43792e-07 0.00463735C 0.000998814 0.00292197 0.00156002 0.00184205 0.002621 -3.8777e-07C 0.00174725 0.00152439 0.000873993 0.00304904 2.43792e-07 0.00463735Z"/>
<path id="path2_fill" d="M 0.160267 0.598855C 0.0748265 0.725856 0.021216 0.870139 0.00642471 1.02351C -0.00836661 1.17719 -6.67994e-05 1.34816 0.0572886 1.49282C 0.111898 1.63068 0.226297 1.73246 0.344378 1.81442C 0.476876 1.90616 0.622604 1.97782 0.771017 2.03856C 0.895526 2.08958 1.03558 2.13837 1.18655 2.18551L 1.18655 1.78374e-07C 0.805156 0.0828463 0.38844 0.25972 0.160267 0.598855Z"/>
<path id="path3_fill" d="M 0.00979852 -7.6003e-07C 0.00667799 0.00565361 0.00330796 0.011562 1.98081e-07 0.0177882C 0.00386966 0.0105455 0.00692763 0.00520889 0.00979852 -7.6003e-07Z"/>
<path id="path4_fill" d="M -3.36599e-07 0.00155656C 0.00199113 -0.000434988 0.00229751 -0.00060095 -3.36599e-07 0.00155656L -3.36599e-07 0.00155656Z"/>
<path id="path5_fill" d="M 12.3894 5.87476C 14.4071 4.14935 15.7553 0.26225 14.9256 0.0922373C 13.8232 -0.133747 11.4292 0.857166 10.2722 1.03175C 8.63101 1.23347 6.84357 -0.77987 5.84025 0.342364C 5.02448 1.25481 6.4251 4.57311 8.6164 6.01872C 2.07876 9.28962 -7.11033 25.7098 8.92053 26.9012C 31.102 28.5498 19.9949 9.06217 12.3894 5.87476ZM 14.2944 18.8245C 14.2262 19.4646 13.8929 20.0435 13.3947 20.4365C 12.8688 20.8515 12.209 21.0446 11.5535 21.0986L 11.5535 21.8059C 11.5535 21.9952 11.4723 22.1782 11.3331 22.3035C 11.1418 22.4758 10.8608 22.5183 10.6286 22.4094C 10.3993 22.302 10.2488 22.0627 10.2488 21.8059L 10.2488 21.0329C 10.1364 21.0111 10.0248 20.9853 9.91448 20.9545C 9.30186 20.7831 8.73361 20.4491 8.31852 19.955C 8.11175 19.7087 7.94318 19.4292 7.8266 19.1275C 7.79614 19.0486 7.76899 18.9683 7.74521 18.8871C 7.72368 18.8136 7.70146 18.7389 7.69379 18.6623C 7.68087 18.5338 7.70589 18.4026 7.76475 18.2881C 7.8857 18.0526 8.14058 17.9104 8.40084 17.934C 8.65697 17.9571 8.88146 18.1381 8.9621 18.3866C 8.98693 18.4632 9.00378 18.5416 9.03168 18.6174C 9.05933 18.6926 9.09272 18.7657 9.13198 18.8353C 9.20949 18.9724 9.3066 19.0989 9.41844 19.2086C 9.64899 19.4347 9.94263 19.5817 10.2488 19.6691L 10.2488 17.0413C 9.65017 16.8835 9.03231 16.6798 8.53801 16.2885C 8.2978 16.0983 8.09396 15.862 7.96047 15.5822C 7.81961 15.287 7.76125 14.9581 7.75888 14.6314C 7.75645 14.2997 7.81836 13.9709 7.95429 13.6687C 8.08161 13.3857 8.2649 13.1317 8.48965 12.9211C 8.97021 12.4708 9.60854 12.2197 10.2488 12.1274L 10.2488 12.0696L 10.2488 11.3932C 10.2488 11.204 10.33 11.0209 10.4692 10.8956C 10.6605 10.7233 10.9415 10.6808 11.1737 10.7897C 11.4029 10.8971 11.5536 11.1364 11.5536 11.3932L 11.5536 12.0696L 11.5536 12.1234C 11.6389 12.1343 11.724 12.1474 11.8086 12.1631C 12.4373 12.2789 13.0522 12.5432 13.512 13.0046C 13.7298 13.2232 13.9081 13.4836 14.0335 13.7676C 14.0685 13.8468 14.0992 13.9279 14.1257 14.0105C 14.1504 14.0876 14.1753 14.1669 14.1871 14.2474C 14.2059 14.3758 14.1867 14.5084 14.1327 14.6259C 14.0221 14.8665 13.7741 15.0198 13.5131 15.0084C 13.2568 14.997 13.0245 14.8271 12.9327 14.5831C 12.9053 14.5106 12.8917 14.4338 12.8638 14.3614C 12.8356 14.2881 12.7992 14.2183 12.7572 14.1523C 12.6755 14.0239 12.5697 13.9139 12.449 13.8232C 12.1875 13.6266 11.8703 13.5242 11.5534 13.467L 11.5534 15.9817C 11.93 16.0735 12.307 16.1737 12.6679 16.3185C 13.2133 16.5374 13.7301 16.8731 14.0278 17.4025C 13.9816 17.32 13.9367 17.2397 14.0293 17.4052C 14.1203 17.5679 14.0769 17.4904 14.0312 17.4089C 14.2681 17.8338 14.3459 18.3418 14.2944 18.8245Z"/>
<path id="path6_fill" d="M 0.00973582 4.03281e-07C 0.00592877 0.00692542 0.0026216 0.0130235 3.5045e-07 0.0176614C 0.00224713 0.0136589 0.00561672 0.00762428 0.00973582 4.03281e-07Z"/>
</defs>
</svg>
